<?xml version="1.0" encoding="utf-8"?>
<!-- Generator: Adobe Illustrator 22.1.0, SVG Export Plug-In . SVG Version: 6.00 Build 0)  -->
<svg version="1.1" id="Layer_1" xmlns="http://www.w3.org/2000/svg" xmlns:xlink="http://www.w3.org/1999/xlink" x="0px" y="0px"
	 viewBox="0 0 35 35" style="enable-background:new 0 0 35 35;" xml:space="preserve">
<style type="text/css">
	.st0{opacity:0.85;}
	.st1{fill:#DF0A16;}
	.st2{fill:#E52631;}
	.st3{fill:#E8414B;}
	.st4{fill:#E62D38;}
	.st5{fill:#E62934;}
	.st6{fill:#F18B91;}
	.st7{fill:#EE737B;}
	.st8{fill:#F6BCC0;}
	.st9{fill:#F6B3B7;}
	.st10{fill:#F39CA1;}
	.st11{fill:#F0848B;}
	.st12{fill:#ED6C73;}
	.st13{fill:#F08188;}
	.st14{fill:#F6BABE;}
	.st15{fill:#F18C92;}
	.st16{fill:#EB545D;}
	.st17{fill:#F7C5C8;}
	.st18{fill:#EB5D65;}
</style>
<g class="st0">
	<path class="st1" d="M2.7,13.2c0-0.1,0-0.1,0-0.2c0-0.1,0-0.1,0-0.2c0,0,0,0,0-0.1c0,0,0-0.1,0-0.1c0,0,0,0,0,0c0-0.1,0-0.2,0-0.4
		c0-0.3,0.1-0.5,0.1-0.8c0.1-0.7,0.3-1.4,0.6-2c0.3-0.6,0.7-1.3,1.1-1.8c0.2-0.3,0.4-0.5,0.7-0.8C5.6,6.6,6,6.3,6.4,6
		c0.4-0.3,0.9-0.6,1.3-0.8C8.4,4.9,9.2,4.6,10,4.5c0.3-0.1,0.7-0.1,1-0.1c0.3,0,0.6,0,1,0c1,0.1,2,0.3,3,0.7c0.5,0.2,1,0.5,1.5,0.8
		c0.3,0.2,0.6,0.4,0.9,0.7c0,0,0,0,0,0c0,0,0.1,0,0.1,0c0.2-0.2,0.5-0.4,0.8-0.6c0.7-0.5,1.4-0.9,2.1-1.2c0.5-0.2,1.1-0.3,1.7-0.4
		c0.2,0,0.5-0.1,0.7-0.1c0.1,0,0.1,0,0.2,0c0,0,0,0,0.1,0c0,0,0.1,0,0.1,0c0,0,0.1,0,0.1,0c0.2,0,0.3,0,0.5,0c0,0,0.1,0,0.1,0
		c0,0,0.1,0,0.1,0c0,0,0,0,0,0c0.1,0,0.3,0,0.4,0c0.3,0,0.6,0.1,0.9,0.1c0.6,0.1,1.2,0.3,1.7,0.5c0.7,0.3,1.3,0.6,1.9,1.1
		c0.4,0.3,0.7,0.6,1.1,1c0.5,0.5,0.8,1,1.2,1.6c0.5,0.8,0.8,1.7,1,2.6c0.1,0.3,0.1,0.7,0.2,1c0,0.2,0,0.3,0,0.5c0,0,0,0.1,0,0.1
		c0,0,0,0.1,0,0.1c0,0.2,0,0.3,0,0.5c0,0,0,0.1,0,0.1c0,0,0,0.1,0,0.1c0,0.7-0.1,1.4-0.3,2c-0.3,1-0.7,1.8-1.3,2.6
		c-0.3,0.4-0.7,0.8-1,1.2c-0.6,0.6-1.2,1.2-1.7,1.7c-3.4,3.4-6.9,6.9-10.3,10.3c0,0-0.1,0.1-0.1,0.1c0,0,0,0-0.1,0
		c-0.1,0-0.1-0.1-0.1-0.1c-4-4-8.1-8.1-12.1-12.1c-0.5-0.5-0.9-1.1-1.3-1.8c-0.3-0.5-0.5-1-0.7-1.6c-0.2-0.5-0.3-1.1-0.4-1.6
		c0-0.2,0-0.5,0-0.7c0,0,0-0.1,0-0.1c0,0,0-0.1,0-0.1C2.8,13.4,2.8,13.3,2.7,13.2z"/>
	<path class="st2" d="M23.7,4.3c-0.2,0-0.3,0-0.5,0c0,0,0,0,0,0c0,0,0,0,0,0C23.4,4.3,23.6,4.3,23.7,4.3C23.7,4.3,23.7,4.3,23.7,4.3
		C23.7,4.3,23.7,4.3,23.7,4.3z"/>
	<path class="st3" d="M32.2,13.3c0-0.2,0-0.3,0-0.5c0,0,0,0,0,0C32.3,13,32.3,13.1,32.2,13.3C32.2,13.3,32.2,13.3,32.2,13.3z"/>
	<path class="st4" d="M2.7,13.2c0,0.1,0,0.1,0,0.2c0,0,0,0,0,0C2.7,13.4,2.7,13.3,2.7,13.2z"/>
	<path class="st5" d="M2.8,12.9c0,0.1,0,0.1,0,0.2C2.7,13,2.7,13,2.8,12.9C2.8,12.9,2.8,12.9,2.8,12.9z"/>
	<path class="st6" d="M2.7,12.7c0,0,0,0.1,0,0.1c0,0,0,0,0,0C2.7,12.8,2.7,12.8,2.7,12.7z"/>
	<path class="st7" d="M2.7,13.4C2.8,13.4,2.8,13.4,2.7,13.4c0,0,0,0.1,0,0.1c0,0,0,0,0,0C2.7,13.5,2.7,13.5,2.7,13.4z"/>
	<path class="st8" d="M32.2,12.6C32.2,12.6,32.2,12.6,32.2,12.6c0,0,0,0.1,0,0.1c0,0,0,0,0,0C32.2,12.7,32.2,12.6,32.2,12.6z"/>
	<path class="st9" d="M32.3,13.5L32.3,13.5L32.3,13.5c0,0,0-0.1,0-0.1c0,0,0,0,0,0C32.3,13.4,32.3,13.4,32.3,13.5z"/>
	<path class="st10" d="M23.9,4.3C23.9,4.3,23.9,4.3,23.9,4.3C23.8,4.3,23.8,4.3,23.9,4.3C23.9,4.3,23.9,4.3,23.9,4.3z"/>
	<path class="st11" d="M32.2,12.7C32.2,12.7,32.2,12.7,32.2,12.7C32.3,12.7,32.3,12.8,32.2,12.7C32.2,12.8,32.2,12.8,32.2,12.7
		C32.2,12.8,32.2,12.7,32.2,12.7z"/>
	<path class="st12" d="M23.8,4.3C23.8,4.3,23.8,4.3,23.8,4.3C23.8,4.3,23.8,4.3,23.8,4.3C23.7,4.3,23.7,4.3,23.8,4.3
		C23.8,4.3,23.8,4.3,23.8,4.3z"/>
	<path class="st13" d="M32.3,13.4L32.3,13.4L32.3,13.4C32.2,13.3,32.2,13.3,32.3,13.4C32.2,13.3,32.2,13.3,32.3,13.4
		C32.3,13.3,32.3,13.3,32.3,13.4z"/>
	<path class="st14" d="M2.7,13.5C2.8,13.5,2.8,13.5,2.7,13.5C2.8,13.6,2.8,13.6,2.7,13.5C2.8,13.6,2.8,13.6,2.7,13.5L2.7,13.5
		C2.7,13.6,2.7,13.6,2.7,13.5z"/>
	<path class="st15" d="M23.1,4.3C23.1,4.3,23.1,4.3,23.1,4.3C23.1,4.3,23.1,4.3,23.1,4.3C23.1,4.3,23.1,4.3,23.1,4.3
		C23.1,4.3,23.1,4.3,23.1,4.3C23.2,4.3,23.2,4.3,23.1,4.3z"/>
	<path class="st16" d="M2.7,12.8C2.8,12.8,2.8,12.8,2.7,12.8C2.8,12.9,2.8,12.9,2.7,12.8C2.8,12.9,2.8,12.9,2.7,12.8
		C2.7,12.9,2.7,12.9,2.7,12.8z"/>
	<path class="st17" d="M23.1,4.3C23.1,4.3,23.1,4.3,23.1,4.3C23.1,4.3,23,4.3,23.1,4.3C23,4.3,23,4.3,23.1,4.3
		C23,4.3,23.1,4.3,23.1,4.3z"/>
	<path class="st18" d="M23.1,4.3C23.1,4.3,23.1,4.3,23.1,4.3C23.2,4.3,23.2,4.3,23.1,4.3C23.2,4.3,23.2,4.3,23.1,4.3
		C23.2,4.3,23.2,4.3,23.1,4.3z"/>
</g>
</svg>
