<?xml version="1.0" encoding="utf-8"?>
<!-- Generator: Adobe Illustrator 22.0.1, SVG Export Plug-In . SVG Version: 6.00 Build 0)  -->
<svg version="1.1" id="Layer_1" xmlns="http://www.w3.org/2000/svg" xmlns:xlink="http://www.w3.org/1999/xlink" x="0px" y="0px"
	 viewBox="0 0 35 35" style="enable-background:new 0 0 35 35;" xml:space="preserve">
<style type="text/css">
	.st0{fill:none;stroke:#003082;stroke-width:1.5;stroke-miterlimit:10;}
</style>
<g>
	<path class="st0" d="M17.5,30.5c-0.1-0.1-0.2-0.2-0.3-0.2c-3.8-3.8-7.7-7.7-11.5-11.5C4,17,3.2,15,3.3,12.5c0.1-3.7,3-6.8,6.7-7.2
		c2.6-0.3,4.9,0.5,6.8,2.4c0.2,0.2,0.5,0.5,0.7,0.7c0,0,0,0,0.1,0c0.2-0.3,0.5-0.5,0.8-0.8c2.7-2.7,6.8-3.1,9.9-1.2
		c3.8,2.4,4.6,7.7,1.8,11.4c-0.3,0.3-0.5,0.6-0.8,0.9c-3.8,3.9-7.7,7.7-11.5,11.5C17.7,30.4,17.6,30.4,17.5,30.5z"/>
</g>
</svg>
