<svg id="Layer_1" data-name="Layer 1" xmlns="http://www.w3.org/2000/svg" viewBox="0 0 35 35"><defs><style>.cls-1{fill:#003082;}</style></defs><title>like2</title><path class="cls-1" d="M22.61.46C25,.46,26,2.07,26,4.72A23.93,23.93,0,0,1,23.72,14c1.87.17,3.79.13,5.71.13,3.2,0,5.11,1.32,5.11,3.84a2.82,2.82,0,0,1-1.32,2.42l0,0c.69,1.57.64,3.11-.89,4.22l0,0c.68,1.58.64,3.11-.89,4.22l0,0c.47,1.32.38.72.47,1.79,0,2.34-1.71,3.83-4.26,3.83H22.61a61.47,61.47,0,0,1-8.86-.68c-.73-.13-1.45-.21-2.22-.38v.21a.85.85,0,0,1-.85.85H1.31a.86.86,0,0,1-.86-.85V13.24a.86.86,0,0,1,.86-.85h9.37a.85.85,0,0,1,.85.85v.13a18.84,18.84,0,0,0,4.61-4.56,16.7,16.7,0,0,0,1-1.58c.47-.81,2.09-4.09,2.47-4.73C20.44,1.22,21.33.46,22.61.46ZM2.16,14.09V32.84H9.83V14.09ZM22.61,2.16c-1.7,0-2.55,4.26-5.11,7.67a21.75,21.75,0,0,1-5.71,5.45l-.26.13V31.69a54.34,54.34,0,0,0,11.08,1.15h5.12c1.7,0,2.55-.85,2.55-2.13s-.85-1.28-.85-2.13,1.7-.85,1.7-2.13-.85-1.28-.85-2.13S32,23.47,32,22.19s-.86-1.28-.86-2.13,1.71-.86,1.71-2.13S32,15.8,29.43,15.8c-6,0-8.52,0-7.67-1.71a24,24,0,0,0,2.56-9.37C24.32,3,23.93,2.16,22.61,2.16Z"/></svg>