<?xml version="1.0" encoding="utf-8"?>
<!-- Generator: Adobe Illustrator 22.1.0, SVG Export Plug-In . SVG Version: 6.00 Build 0)  -->
<svg version="1.1" id="Layer_1" xmlns="http://www.w3.org/2000/svg" xmlns:xlink="http://www.w3.org/1999/xlink" x="0px" y="0px"
	 viewBox="0 0 35 35" style="enable-background:new 0 0 35 35;" xml:space="preserve">
<style type="text/css">
	.st0{fill:#003082;}
</style>
<title>like2</title>
<g>
	<path class="st0" d="M32.6,17.6V9.2c-2.3,0.1-4.5,0.1-6.7,0.3c-2.8,0.3-5.6,0.7-8.1,2.3c-0.2,0.1-0.5,0-0.8-0.1
		c-0.7-0.3-1.4-0.7-2.2-1c-2.4-0.9-4.9-1.2-7.4-1.4c-1.7-0.1-3.3,0-5.1,0v8.2C1,18,0.7,18.3,0.7,19.7c0,0.5,0,1,0,1.4
		c-0.2,3.5,0.7,3.3,3.4,3.2c1.4,0,2.6-0.9,3-2.3c0.5-1.3,0.1-2.7-1-3.6c-0.2-0.2-0.4-0.4-0.4-0.6c0-1.7,0-3.4,0-5.2
		C6.9,12.8,8,12.7,9,13c2,0.4,3.9,0.9,5.9,1.4c0.6,0.2,0.9,0.7,0.9,1.4c-0.1,3,0,5.9,0,8.9c0,1.7,0,3.3,0,5.1
		c-3.2-1.5-6.6-1.7-10.1-1.9v-1.7H2.4v4.9c0.4,0,0.8,0,1.2,0c2.6,0.2,5.1,0.4,7.6,0.7c1.5,0.2,3.1,0.5,4,1.8
		c0.1,0.2,0.3,0.3,0.4,0.4c0.5-0.2,1.1-0.3,1.8-0.3c0.7,0,1.3,0.1,1.8,0.3c0.5-0.5,1-0.9,1.6-1.2c2.1-1.1,4.4-1.3,6.8-1.5
		c1.6-0.1,3.3,0,4.9,0v-5h-3.3v1.6c-1.8,0.2-3.5,0.3-5.2,0.6c-1.6,0.3-3.3,0.8-4.9,1.2c0-4.5,0-9.1,0-13.6c0-0.9,0.4-1.4,1.1-1.7
		c2.9-1.2,5.9-1.3,9-1.5c0,1.6,0,3.1,0,4.6c0,0.5-0.1,0.9-0.6,1.3c-1,0.8-1.3,2-1,3.2c0.3,1.3,1.1,2.2,2.5,2.4
		c0.9,0.2,1.8,0.2,2.8,0.1c0.8-0.1,1.3-0.7,1.3-1.5c0-1,0-2,0-3C34.2,18.3,34,18,32.6,17.6z"/>
	<path class="st0" d="M24.2,7.8c-2.3,0.8-4.4,1.5-6.5,2.2c-0.1,0-0.3,0-0.5,0c-2.1-0.7-4.2-1.4-6.4-2.1c-0.1-2.3,0.9-4.4,3-5.8
		c2.3-1.5,4.8-1.6,7.2-0.2C23.2,3.2,24.2,5.3,24.2,7.8z"/>
</g>
</svg>
