<?xml version="1.0" encoding="utf-8"?>
<!-- Generator: Adobe Illustrator 22.1.0, SVG Export Plug-In . SVG Version: 6.00 Build 0)  -->
<svg version="1.1" id="icon" xmlns="http://www.w3.org/2000/svg" xmlns:xlink="http://www.w3.org/1999/xlink" x="0px" y="0px"
	 viewBox="0 0 35 35" style="enable-background:new 0 0 35 35;" xml:space="preserve">
<style type="text/css">
	.st0{fill:none;}
	.st1{fill:#003082;}
	.st2{fill:#00FF30;}
</style>
<g>
	<path class="st0" d="M20.2,21.6l2.6,2.8l2.9-3.3h-6.3C19.7,21.1,20,21.3,20.2,21.6z"/>
	<path class="st1" d="M26,26c0.3,0,0.5-0.2,0.5-0.5s-0.2-0.4-0.4-0.5l-0.9,1H26z"/>
	<path class="st1" d="M9,25c-0.3,0-0.5,0.2-0.5,0.5S8.7,26,9,26h11.4l-0.9-1H9z"/>
	<path class="st1" d="M9,16h17c0.3,0,0.5-0.2,0.5-0.5S26.3,15,26,15H9c-0.3,0-0.5,0.2-0.5,0.5S8.7,16,9,16z"/>
	<path class="st1" d="M19.4,21h6.3l0.7-0.7c0-0.2-0.2-0.3-0.4-0.3H9c-0.3,0-0.5,0.2-0.5,0.5S8.7,21,9,21h9.1
		C18.5,20.8,19,20.8,19.4,21z"/>
	<path class="st1" d="M9,11h17c0.3,0,0.5-0.2,0.5-0.5S26.3,10,26,10H9c-0.3,0-0.5,0.2-0.5,0.5S8.7,11,9,11z"/>
</g>
<path class="st2" d="M31.4,16.7c-0.4-0.4-1.3-0.4-2.1,0.1L21,26.4l-4.4-4.8c-0.7-0.7-1.5-0.9-2.1-0.3c-0.4,0.4-0.4,1.3,0.1,2.1
	l4.4,4.8l1.8,2.1l1.6-1.8l8.4-9.5C31.7,18,31.8,17.3,31.4,16.7z"/>
<rect x="17.9" y="20.3" class="st1" width="1.6" height="0.7"/>
</svg>
