<?xml version="1.0" encoding="utf-8"?>
<!-- Generator: Adobe Illustrator 22.0.1, SVG Export Plug-In . SVG Version: 6.00 Build 0)  -->
<svg version="1.1" id="icon" xmlns="http://www.w3.org/2000/svg" xmlns:xlink="http://www.w3.org/1999/xlink" x="0px" y="0px"
	 viewBox="0 0 35 35" style="enable-background:new 0 0 35 35;" xml:space="preserve">
<style type="text/css">
	.st0{fill:#003082;}
</style>
<g>
	<path class="st0" d="M9,25c-0.3,0-0.5,0.2-0.5,0.5S8.7,26,9,26h8.8c-0.2-0.3-0.4-0.6-0.4-1H9z"/>
	<path class="st0" d="M9,16h17c0.3,0,0.5-0.2,0.5-0.5S26.3,15,26,15H9c-0.3,0-0.5,0.2-0.5,0.5S8.7,16,9,16z"/>
	<path class="st0" d="M9,20c-0.3,0-0.5,0.2-0.5,0.5S8.7,21,9,21h13.5v-1H9z"/>
	<path class="st0" d="M9,11h17c0.3,0,0.5-0.2,0.5-0.5S26.3,10,26,10H9c-0.3,0-0.5,0.2-0.5,0.5S8.7,11,9,11z"/>
</g>
<path class="st0" d="M29.7,23.9h-4.3v-4.3c0-0.6-0.4-0.9-0.8-0.9c-0.5,0-0.8,0.4-0.8,0.9v4.3h-4.3c-0.6,0-0.9,0.4-0.9,0.8
	c0,0.5,0.4,0.8,0.9,0.8h4.3v4.3c0,0.6,0.4,0.9,0.8,0.9c0.5,0,0.8-0.4,0.8-0.9v-4.2h4.3c0.6,0,0.9-0.4,0.9-0.8
	C30.7,24.1,30.3,23.9,29.7,23.9z"/>
</svg>
